<svg width="11" height="11" viewBox="0 0 11 11" fill="none" xmlns="http://www.w3.org/2000/svg">
<g clip-path="url(#clip0_3367_680)">
<path d="M5.31813 4.87576C4.0917 4.54096 3.6973 4.19481 3.6973 3.65572C3.6973 3.03719 4.24298 2.60592 5.15605 2.60592C6.11774 2.60592 6.47432 3.08826 6.50673 3.79758H7.70074C7.66292 2.82155 7.09563 1.92497 5.96646 1.63556V0.392822H4.34563V1.61854C3.2975 1.85687 2.45467 2.57187 2.45467 3.66707C2.45467 4.9779 3.4866 5.63048 4.99396 6.01068C6.34465 6.35116 6.61479 6.85052 6.61479 7.37826C6.61479 7.76981 6.35005 8.39401 5.15605 8.39401C4.04308 8.39401 3.60546 7.87195 3.54603 7.20235H2.35742C2.42225 8.44508 3.30831 9.14306 4.34563 9.37572V10.6071H5.96646V9.38707C7.02 9.17711 7.85742 8.53588 7.85742 7.37258C7.85742 5.761 6.54455 5.21056 5.31813 4.87576Z" fill="#989898"/>
</g>
<defs>
<clipPath id="clip0_3367_680">
<rect width="11" height="11" fill="white"/>
</clipPath>
</defs>
</svg>
