<svg width="11" height="11" viewBox="0 0 11 11" fill="none" xmlns="http://www.w3.org/2000/svg">
<path d="M5.5 6.1875C5.16006 6.1875 4.82776 6.0867 4.54511 5.89784C4.26247 5.70898 4.04217 5.44055 3.91208 5.12649C3.78199 4.81243 3.74796 4.46684 3.81428 4.13344C3.88059 3.80003 4.04429 3.49378 4.28466 3.25341C4.52503 3.01304 4.83128 2.84934 5.16469 2.78303C5.49809 2.71671 5.84368 2.75074 6.15774 2.88083C6.4718 3.01092 6.74023 3.23122 6.92909 3.51386C7.11795 3.79651 7.21875 4.12881 7.21875 4.46875C7.21821 4.92442 7.03695 5.36128 6.71474 5.68349C6.39253 6.0057 5.95567 6.18696 5.5 6.1875ZM5.5 3.4375C5.29604 3.4375 5.09666 3.49798 4.92707 3.6113C4.75748 3.72461 4.6253 3.88567 4.54725 4.07411C4.4692 4.26255 4.44878 4.4699 4.48857 4.66994C4.52836 4.86998 4.62657 5.05373 4.7708 5.19796C4.91502 5.34218 5.09877 5.4404 5.29881 5.48019C5.49886 5.51998 5.70621 5.49955 5.89464 5.4215C6.08308 5.34345 6.24414 5.21127 6.35745 5.04168C6.47077 4.87209 6.53125 4.67271 6.53125 4.46875C6.53098 4.19533 6.42224 3.93319 6.2289 3.73985C6.03557 3.54651 5.77342 3.43777 5.5 3.4375Z" fill="#989898"/>
<path d="M5.5 10.3125L2.60013 6.89253C2.55983 6.84118 2.51996 6.7895 2.4805 6.7375C1.9854 6.08486 1.71783 5.28794 1.71875 4.46875C1.71875 3.4659 2.11713 2.50412 2.82625 1.795C3.53538 1.08588 4.49715 0.6875 5.5 0.6875C6.50285 0.6875 7.46463 1.08588 8.17375 1.795C8.88287 2.50412 9.28125 3.4659 9.28125 4.46875C9.28205 5.28755 9.01461 6.08406 8.51985 6.73647L8.5195 6.7375C8.5195 6.7375 8.41638 6.87294 8.40091 6.89116L5.5 10.3125ZM3.02947 6.32328C3.02947 6.32328 3.10956 6.42916 3.12778 6.45184L5.5 9.24963L7.87532 6.44806C7.89044 6.42916 7.97088 6.32259 7.97122 6.32225C8.37589 5.78914 8.59457 5.13805 8.59375 4.46875C8.59375 3.64824 8.2678 2.86133 7.68761 2.28114C7.10742 1.70095 6.32052 1.375 5.5 1.375C4.67949 1.375 3.89258 1.70095 3.31239 2.28114C2.7322 2.86133 2.40625 3.64824 2.40625 4.46875C2.4054 5.13848 2.62434 5.78998 3.02947 6.32328Z" fill="#989898"/>
</svg>
